# xmcd
#
# Track frame offsets:
#	150
#	11945
#	24834
#	44977
#	58432
#	77634
#	95647
#	113243
#	126662
#	141957
#
# Disc length: 2213 seconds
#
# Revision: 1
# Processed by: cddbd v1.5.1PL0 Copyright (c) Steve Scherf et al.
# Submitted via: EasyCDDAExtractor 7.0.9.1
#
DISCID=9808a30a
DTITLE=Kim Copedo - Did You See Her
DYEAR=2004
DGENRE=Country
TTITLE0=Wide Open Spaces
TTITLE1=I'm Living With A Memory
TTITLE2=Is It Cold In Here
TTITLE3=Wake Up And Smell The Whiskey
TTITLE4=Did You See Her
TTITLE5=How Long
TTITLE6=Crying In The Rain
TTITLE7=Bring On The Heartaches
TTITLE8=Love Me
TTITLE9=Bannermans Revenge
EXTD=
EXTT0=
EXTT1=
EXTT2=
EXTT3=
EXTT4=
EXTT5=
EXTT6=
EXTT7=
EXTT8=
EXTT9=
PLAYORDER=
